<svg xmlns="http://www.w3.org/2000/svg" width="11" height="13">
    <path fill="#111" fill-rule="evenodd" d="M2.75 12.75c.078 0 .166-.022.264-.064.097-.043.185-.124.263-.241l6.75-6c.11-.07.184-.171.223-.304.039-.133.039-.254 0-.364-.039-.117-.108-.224-.205-.322-.098-.097-.205-.166-.322-.205L8.07 4.723l.61-3.071c.031-.148.015-.293-.047-.433-.063-.141-.149-.246-.258-.317-.109-.078-.246-.117-.41-.117-.164 0-.301.039-.41.117l-6.75 4.5c-.118.071-.207.176-.27.317-.062.14-.074.285-.035.433.039.149.111.276.217.381.105.106.232.178.381.217l2.25.527-1.278 4.5c-.07.149-.074.305-.011.469.062.164.167.281.316.352.039.039.092.074.158.105s.139.047.217.047zm.305-7.055l3.82-2.543L6.5 5.098c-.039.187-.012.363.082.527.094.164.215.266.363.305L8 6.305 4.18 9.75 5 6.973c0-.11-.006-.217-.018-.323-.011-.105-.056-.197-.134-.275-.039-.109-.096-.189-.17-.24-.075-.051-.166-.096-.276-.135l-1.347-.305z"/>
</svg>
