<svg xmlns="http://www.w3.org/2000/svg" width="10" height="13">
    <path fill="#111" fill-rule="evenodd" d="M6.91 1.781c.328.454.686 1.026 1.072 1.717.387.691.737 1.455 1.049 2.291.313.836.469 1.656.469 2.461 0 .617-.117 1.199-.352 1.746-.242.547-.566 1.024-.972 1.43-.407.406-.883.73-1.43.972-.547.235-1.129.352-1.746.352s-1.199-.117-1.746-.352c-.547-.242-1.024-.566-1.43-.972-.406-.406-.73-.883-.972-1.43C.617 9.449.5 8.867.5 8.25c.016-.297.051-.664.105-1.102.047-.437.139-.857.276-1.259.136-.403.33-.748.58-1.037.25-.282.578-.422.984-.422.117 0 .229.015.334.047.106.031.198.062.276.093.148.079.279.137.392.176.113.039.205.059.276.059.242 0 .445-.125.609-.375.164-.242.295-.537.393-.885.097-.348.17-.709.216-1.084C4.98 2.086 5 1.766 5 1.5c0-.148.051-.289.152-.422.102-.133.227-.218.375-.258.149-.07.295-.088.44-.053.144.036.271.131.381.288.039.031.226.273.562.726zm-.75 9.235c.367-.157.687-.371.961-.645.274-.273.488-.594.645-.961.156-.359.234-.746.234-1.16 0-.391-.055-.797-.164-1.219-.11-.414-.246-.824-.41-1.23-.164-.406-.344-.805-.539-1.196-.188-.382-.368-.742-.539-1.078-.071.321-.172.641-.305.961-.125.321-.289.61-.492.867-.203.258-.446.469-.727.633-.289.157-.629.235-1.019.235-.227 0-.44-.022-.639-.065-.199-.043-.412-.119-.639-.228-.117.148-.224.451-.322.908S2.039 7.766 2 8.25c0 .414.078.801.234 1.16.157.367.371.688.645.961.273.274.594.488.961.645.359.156.746.234 1.16.234.414 0 .801-.078 1.16-.234zm.27-2.274c-.039-.289-.116-.582-.229-.879-.113-.296-.268-.554-.463-.773-.195-.227-.441-.34-.738-.34s-.543.113-.738.34c-.196.219-.35.477-.463.773-.114.297-.19.59-.229.879-.047.289-.07.5-.07.633 0 .109.006.236.018.381.011.145.056.291.134.439.071.118.192.219.364.305.171.086.425.11.761.07h.668c.118 0 .323-.058.616-.175.293-.118.439-.458.439-1.02 0-.133-.023-.344-.07-.633z"/>
</svg>
