<svg xmlns="http://www.w3.org/2000/svg" width="17" height="14">
    <path fill="#151515" fill-rule="evenodd" d="M15.559 1.328c.437.448.765.948.984 1.5.219.563.328 1.133.328 1.711 0 .578-.109 1.143-.328 1.695-.219.553-.547 1.053-.984 1.5-.011 0-.021.011-.032.032L8.887 14 2.215 7.766l-.031-.032c-.438-.447-.766-.947-.985-1.5C.98 5.682.871 5.117.871 4.539c0-.578.109-1.148.328-1.711.219-.552.547-1.052.985-1.5.427-.427.914-.755 1.461-.984C4.191.115 4.767 0 5.371 0c.583 0 1.141.109 1.672.328.531.219 1.005.531 1.422.938.01 0 .146.109.406.328.26-.219.396-.328.406-.328.417-.407.891-.719 1.422-.938C11.231.109 11.788 0 12.371 0c.604 0 1.18.115 1.727.344.547.229 1.033.557 1.461.984zm-6.672 9.938l5.25-4.953c.489-.49.734-1.084.734-1.782s-.245-1.297-.734-1.797c-.24-.239-.511-.422-.813-.547-.302-.124-.62-.187-.953-.187-.333 0-.654.063-.961.187-.307.125-.576.308-.805.547 0 .011-.005.016-.015.016-.011 0-.016.005-.016.016-.01 0-.021.01-.031.031l-1.031.859c-.011.021-.029.037-.055.047-.026.011-.05.021-.07.031l-.086.055c-.026.016-.055.029-.086.039-.021.011-.045.018-.071.024-.026.005-.054.013-.085.023-.032 0-.063.005-.094.016-.031.01-.063.015-.094.015-.073 0-.141-.008-.203-.023-.063-.016-.13-.039-.203-.071-.011 0-.021-.005-.031-.015-.042-.021-.081-.042-.118-.063-.036-.02-.07-.041-.101-.062l-1.016-.875c-.01-.01-.015-.018-.015-.023 0-.006-.006-.008-.016-.008 0-.011-.005-.016-.016-.016-.01 0-.015-.005-.015-.016-.469-.468-1.058-.703-1.766-.703s-1.297.235-1.766.703c-.489.49-.734 1.086-.734 1.789 0 .703.245 1.3.734 1.79l5.282 4.953z"/>
</svg>
