<svg xmlns="http://www.w3.org/2000/svg" width="13" height="13">
    <path fill="#151515" fill-rule="evenodd" d="M11.341 6.001l.633 1.945c.062.172.058.344-.012.516-.07.172-.192.3-.363.386l-1.817.926-.926 1.816c-.07.133-.166.235-.287.305-.121.07-.248.106-.381.106-.039 0-.078-.002-.117-.006-.039-.004-.078-.014-.117-.03l-1.945-.632-1.934.632c-.18.063-.353.059-.521-.011-.168-.071-.295-.192-.381-.364l-.926-1.816-1.828-.926c-.164-.086-.281-.214-.352-.386-.07-.172-.078-.344-.023-.516l.633-1.945-.633-1.946c-.062-.172-.059-.343.012-.515.07-.172.191-.301.363-.387l1.816-.926.926-1.816c.086-.164.215-.282.387-.352.172-.07.344-.078.515-.023l1.946.633L7.942.036c.18-.055.354-.047.522.023.168.07.295.188.381.352l.925 1.816 1.829.926c.164.086.281.215.351.387.071.172.078.343.024.515l-.633 1.946zm-1.5.234c-.024-.078-.035-.156-.035-.234 0-.079.015-.153.047-.223l.515-1.57-1.476-.75c-.071-.039-.133-.086-.188-.141-.055-.055-.101-.117-.141-.187l-.75-1.477-1.57.516c-.07.023-.146.035-.228.035-.082 0-.159-.012-.229-.035l-1.57-.516-.75 1.477c-.039.07-.086.132-.141.187-.055.055-.117.102-.187.141l-1.477.75.504 1.558c.031.078.047.156.047.235 0 .078-.016.156-.047.234l-.504 1.57 1.465.75c.07.032.135.075.193.129.059.055.104.117.135.188l.75 1.476 1.57-.515c.032-.008.069-.016.112-.024s.08-.012.111-.012c.047 0 .088.004.123.012l.111.024 1.571.515.75-1.476c.039-.071.086-.133.14-.188.055-.054.118-.097.188-.129l1.476-.75-.515-1.57zM6.407 3.868c.11.062.195.15.258.263.063.114.094.237.094.37v3c0 .203-.075.379-.223.527-.148.148-.324.223-.527.223s-.379-.075-.528-.223c-.148-.148-.222-.324-.222-.527V5.708l-.41.211c-.188.086-.379.097-.575.035-.195-.063-.339-.188-.433-.375-.094-.18-.108-.369-.041-.569.066-.199.189-.345.369-.439l1.5-.75c.117-.055.242-.08.375-.076.133.004.254.045.363.123z"/>
</svg>
