<svg xmlns="http://www.w3.org/2000/svg" width="16" height="16">
    <path fill="#151515" fill-rule="evenodd" d="M8.328 11.531c.729-.323 1.365-.755 1.906-1.297.542-.541.974-1.177 1.297-1.906C11.844 7.599 12 6.823 12 6s-.156-1.599-.469-2.328c-.323-.729-.755-1.365-1.297-1.906C9.693 1.224 9.057.792 8.328.469 7.599.156 6.823 0 6 0S4.401.156 3.672.469c-.729.323-1.365.755-1.906 1.297-.542.541-.975 1.177-1.297 1.906C.156 4.401 0 5.177 0 6s.156 1.599.469 2.328c.322.729.755 1.365 1.297 1.906.541.542 1.177.974 1.906 1.297C4.401 11.844 5.177 12 6 12s1.599-.156 2.328-.469zm-.781-9.219c.489.209.916.495 1.281.86.365.365.651.792.86 1.281.208.479.312.995.312 1.547 0 .552-.104 1.068-.312 1.547-.209.49-.495.917-.86 1.281-.365.365-.792.651-1.281.86C7.068 9.896 6.552 10 6 10c-.552 0-1.068-.104-1.547-.312-.49-.209-.917-.495-1.281-.86-.365-.364-.651-.791-.859-1.281C2.104 7.068 2 6.552 2 6c0-.552.104-1.068.313-1.547.208-.489.494-.916.859-1.281.364-.365.791-.651 1.281-.86C4.932 2.104 5.448 2 6 2c.552 0 1.068.104 1.547.312zm8.156 13.391c-.104.094-.221.167-.351.219-.131.052-.248.078-.352.078-.104 0-.221-.026-.352-.078-.13-.052-.247-.125-.351-.219l-3-3C11.099 12.505 11 12.271 11 12c0-.271.099-.505.297-.703.198-.198.432-.297.703-.297.271 0 .505.099.703.297l3 3c.198.198.297.432.297.703 0 .271-.099.505-.297.703z"/>
</svg>
